<?xml version="1.0" encoding="utf-8"?>
<!-- Generator: Adobe Illustrator 16.0.0, SVG Export Plug-In . SVG Version: 6.00 Build 0)  -->
<!DOCTYPE svg PUBLIC "-//W3C//DTD SVG 1.1//EN" "http://www.w3.org/Graphics/SVG/1.1/DTD/svg11.dtd">
<svg version="1.1" id="Calque_1" xmlns="http://www.w3.org/2000/svg" xmlns:xlink="http://www.w3.org/1999/xlink" x="0px" y="0px"
	 width="64px" height="64px" viewBox="0 0 64 64" enable-background="new 0 0 64 64" xml:space="preserve">
<path fill="#FFFDD8" d="M52.837,3.59c-5.679,0-10.193,4.571-10.193,10.25s4.516,10.194,10.193,10.194
	c5.68,0,10.223-4.516,10.223-10.194S58.517,3.59,52.837,3.59z M52.832,21.377c-4.123,0-7.526-3.403-7.526-7.528
	c0-4.16,3.403-7.603,7.526-7.603c4.161,0,7.565,3.442,7.565,7.603C60.397,17.974,56.993,21.377,52.832,21.377z"/>
<path fill="#FFFDD8" d="M52.853,22.112c-4.584,0-8.301-3.717-8.301-8.299c0-1.811,0.581-3.483,1.564-4.848
	c-4.694-3.423-10.485-5.441-16.779-5.441c-15.82,0-28.396,12.734-28.396,28.555s12.576,28.396,28.396,28.396
	c15.818,0,28.475-12.578,28.475-28.396c0-3.721-0.701-7.27-1.977-10.521C54.909,21.914,53.903,22.112,52.853,22.112z M29.337,47.817
	c-8.622,0-15.74-7.118-15.74-15.739c0-8.701,7.119-15.897,15.74-15.897c8.701,0,15.818,7.197,15.818,15.897
	C45.155,40.699,38.038,47.817,29.337,47.817z"/>
</svg>
